<?xml version="1.0" encoding="UTF-8" standalone="no"?>
<!-- Created with Inkscape (http://www.inkscape.org/) -->

<svg
   xmlns:dc="http://purl.org/dc/elements/1.1/"
   xmlns:cc="http://creativecommons.org/ns#"
   xmlns:rdf="http://www.w3.org/1999/02/22-rdf-syntax-ns#"
   xmlns:svg="http://www.w3.org/2000/svg"
   xmlns="http://www.w3.org/2000/svg"
   xmlns:sodipodi="http://sodipodi.sourceforge.net/DTD/sodipodi-0.dtd"
   xmlns:inkscape="http://www.inkscape.org/namespaces/inkscape"
   width="1122"
   height="1122"
   viewBox="0 0 296.86249 296.86251"
   version="1.1"
   id="svg8"
   inkscape:version="0.92.2 2405546, 2018-03-11"
   sodipodi:docname="RogueLetters.svg">
  <defs
     id="defs2" />
  <sodipodi:namedview
     id="base"
     pagecolor="#ffffff"
     bordercolor="#666666"
     borderopacity="1.0"
     inkscape:pageopacity="0.0"
     inkscape:pageshadow="2"
     inkscape:zoom="0.71"
     inkscape:cx="128.16901"
     inkscape:cy="560"
     inkscape:document-units="mm"
     inkscape:current-layer="layer1"
     showgrid="false"
     units="px"
     inkscape:window-width="1920"
     inkscape:window-height="1040"
     inkscape:window-x="0"
     inkscape:window-y="0"
     inkscape:window-maximized="1" />
  <metadata
     id="metadata5">
    <rdf:RDF>
      <cc:Work
         rdf:about="">
        <dc:format>image/svg+xml</dc:format>
        <dc:type
           rdf:resource="http://purl.org/dc/dcmitype/StillImage" />
        <dc:title></dc:title>
      </cc:Work>
    </rdf:RDF>
  </metadata>
  <g
     inkscape:label="Layer 1"
     inkscape:groupmode="layer"
     id="layer1"
     transform="translate(0,-0.13748322)">
    <path
       inkscape:connector-curvature="0"
       id="path3723"
       style="font-style:normal;font-variant:normal;font-weight:normal;font-stretch:normal;font-size:96px;line-height:1.25;font-family:'Liberation Sans';-inkscape-font-specification:'Liberation Sans';text-align:center;letter-spacing:100px;word-spacing:0px;text-anchor:middle;fill:#7e0000;fill-opacity:1;stroke:#7e0000;stroke-width:0.595;stroke-opacity:0.99547511;stroke-miterlimit:4;stroke-dasharray:none"
       d="m 50.480412,165.87046 -19.068176,2.68525 -4.985782,11.18993 14.911459,6.64395 -2.169214,4.86852 -35.9148917,-16.00224 7.5297857,-16.8996 q 2.702997,-6.06653 6.895459,-8.13947 4.178322,-2.10981 9.02135,0.048 4.001865,1.78307 5.6844,5.34333 1.693879,3.53475 0.579118,7.95657 l 20.01509,-3.30202 z m -25.909613,-10.6889 q -3.135217,-1.39692 -5.720557,0.0174 -2.599455,1.37742 -4.382528,5.37929 l -5.1447837,11.54679 13.2545907,5.90569 5.235644,-11.75068 q 1.71493,-3.84894 0.86194,-6.73409 -0.867121,-2.92198 -4.104306,-4.36435 z" />
    <path
       inkscape:connector-curvature="0"
       id="path3725"
       style="font-style:normal;font-variant:normal;font-weight:normal;font-stretch:normal;font-size:96px;line-height:1.25;font-family:'Liberation Sans';-inkscape-font-specification:'Liberation Sans';text-align:center;letter-spacing:100px;word-spacing:0px;text-anchor:middle;fill:#7e0000;fill-opacity:1;stroke:#7e0000;stroke-width:0.595;stroke-opacity:0.99547511;stroke-miterlimit:4;stroke-dasharray:none"
       d="m 83.487666,107.31261 q 3.96255,6.86334 2.881126,11.96661 -1.081402,5.10328 -6.833076,8.42401 -5.727484,3.30677 -10.660843,1.51499 -4.947324,-1.8159 -8.756394,-8.4134 -7.813478,-13.53334 3.907365,-20.30037 5.993332,-3.46026 10.732342,-1.78188 4.725072,1.6542 8.72948,8.59004 z m -4.567523,2.63706 q -3.125392,-5.41334 -6.153751,-6.91935 -3.018182,-1.54412 -6.81236,0.64645 -3.818328,2.20451 -4.083079,5.70846 -0.254532,3.46586 2.815045,8.78253 2.985863,5.17166 6.160253,6.81894 3.184594,1.60917 6.785424,-0.46977 3.915001,-2.26033 4.131421,-5.7364 0.240575,-3.49004 -2.842953,-8.83086 z" />
    <path
       inkscape:connector-curvature="0"
       id="path3727"
       style="font-style:normal;font-variant:normal;font-weight:normal;font-stretch:normal;font-size:96px;line-height:1.25;font-family:'Liberation Sans';-inkscape-font-specification:'Liberation Sans';text-align:center;letter-spacing:100px;word-spacing:0px;text-anchor:middle;fill:#7e0000;fill-opacity:1;stroke:#7e0000;stroke-width:0.595;stroke-opacity:0.99547511;stroke-miterlimit:4;stroke-dasharray:none"
       d="m 148.91658,103.92994 q -4.93924,0 -7.86928,-1.95339 -2.93007,-1.92548 -3.76722,-5.497366 l 5.05086,-0.72555 q 0.50229,2.09292 2.2045,3.20913 1.73015,1.144126 4.52066,1.144126 7.50652,0 7.50652,-8.790211 v -4.855545 h -0.0558 q -1.42317,2.902155 -3.90675,4.381155 -2.48356,1.451085 -5.80429,1.451085 -5.55314,0 -8.17623,-3.68352 -2.5952,-3.683511 -2.5952,-11.580696 0,-8.008815 2.79051,-11.803935 2.81844,-3.82302 8.53902,-3.82302 3.20912,0 5.55317,1.478985 2.37195,1.45107 3.65557,4.15788 h 0.0558 q 0,-0.83715 0.1116,-2.90214 0.1116,-2.06499 0.2232,-2.260335 h 4.77182 q -0.1674,1.506885 -0.1674,6.250785 v 23.077671 q 0,12.724891 -12.64109,12.724891 z m 7.64604,-26.956597 q 0,-3.68349 -1.00458,-6.334485 -1.00461,-2.67891 -2.84634,-4.07418 -1.81384,-1.42317 -4.12999,-1.42317 -3.85092,0 -5.60895,2.790525 -1.75805,2.79054 -1.75805,9.04131 0,6.19497 1.64642,8.90178 1.64641,2.706816 5.63686,2.706816 2.37195,0 4.21371,-1.39527 1.84173,-1.395261 2.84634,-3.990441 1.00458,-2.623095 1.00458,-6.222885 z" />
    <path
       inkscape:connector-curvature="0"
       id="path3729"
       style="font-style:normal;font-variant:normal;font-weight:normal;font-stretch:normal;font-size:96px;line-height:1.25;font-family:'Liberation Sans';-inkscape-font-specification:'Liberation Sans';text-align:center;letter-spacing:100px;word-spacing:0px;text-anchor:middle;fill:#7e0000;fill-opacity:1;stroke:#7e0000;stroke-width:0.595;stroke-opacity:0.99547511;stroke-miterlimit:4;stroke-dasharray:none"
       d="m 225.53708,95.26097 -11.0533,15.62946 q -1.72406,2.43783 -2.19624,4.12044 -0.47222,1.68258 0.15688,3.01616 0.62913,1.33356 2.65685,2.76757 2.96184,2.09465 6.10464,1.27538 3.1428,-0.8193 5.6886,-4.41909 l 10.10266,-14.28522 4.10103,2.90028 -13.7119,19.38873 q -3.04532,4.30611 -3.58538,5.35966 l -3.87319,-2.73915 q 0.0577,-0.13005 0.38949,-0.64738 0.33169,-0.51735 0.73729,-1.18751 0.4445,-0.67683 1.67184,-2.50896 l -0.0683,-0.0483 q -3.21721,1.55277 -5.84277,1.30238 -2.58664,-0.25707 -5.34343,-2.20671 -4.05546,-2.86806 -4.52856,-6.21036 -0.43421,-3.34901 2.85279,-7.99685 l 11.61726,-16.426861 z" />
    <path
       inkscape:connector-curvature="0"
       id="path3731"
       style="font-style:normal;font-variant:normal;font-weight:normal;font-stretch:normal;font-size:96px;line-height:1.25;font-family:'Liberation Sans';-inkscape-font-specification:'Liberation Sans';text-align:center;letter-spacing:100px;word-spacing:0px;text-anchor:middle;fill:#7e0000;fill-opacity:1;stroke:#7e0000;stroke-width:0.595;stroke-opacity:0.99547511;stroke-miterlimit:4;stroke-dasharray:none"
       d="m 264.91008,167.33503 q -4.55216,2.49357 -5.99175,5.73211 -1.43961,3.23855 0.54453,6.86069 1.56853,2.86345 3.65727,3.94653 2.10211,1.10754 4.19943,0.75412 l 1.01685,4.4702 q -7.56579,1.05804 -12.17756,-7.36098 -3.21751,-5.87375 -1.40691,-10.8746 1.82402,-4.97635 8.72567,-8.75692 6.55902,-3.59289 11.73459,-2.45078 5.18898,1.16663 8.31264,6.86906 6.39481,11.67408 -7.67771,19.38271 l -0.58738,0.32175 z m 11.2335,12.49165 q 3.98395,-2.65956 4.92766,-5.46739 0.96819,-2.82122 -0.84166,-6.12521 -1.75622,-3.20608 -4.94222,-3.91081 -3.14811,-0.69369 -6.97306,1.21063 z" />
  </g>
</svg>
